<svg width="256" height="256" viewBox="0 0 256 256" fill="none" xmlns="http://www.w3.org/2000/svg">
<g clip-path="url(#clip0_10_36)">
<path d="M53.1517 116.938C51.9179 116.938 50.9926 116.783 50.3757 116.475C49.7588 116.269 49.4503 115.858 49.4503 115.241C49.4503 114.521 49.9644 114.007 50.9926 113.699C52.0208 113.39 53.4088 113.082 55.1567 112.773C58.9609 112.054 62.0968 110.769 64.5645 108.918C67.1349 106.964 68.9342 104.137 69.9624 100.435L88.7779 34.4267C90.2174 29.1831 90.8343 25.7387 90.6286 24.0936C90.423 22.3457 89.6519 21.4718 88.3152 21.4718H75.5145C70.4765 21.4718 66.5694 22.4999 63.7933 24.5563C61.1201 26.5098 58.8581 28.6176 57.0074 30.8795C56.082 31.9077 55.2081 33.0387 54.3856 34.2725C53.6658 35.4035 52.9461 36.3803 52.2264 37.2028C51.6095 38.0253 50.9926 38.4366 50.3757 38.4366C49.7588 38.4366 49.2961 38.3338 48.9877 38.1282C48.782 37.8197 48.6792 37.2542 48.6792 36.4317C48.6792 36.226 48.782 35.712 48.9877 34.8894C49.1933 34.0669 49.6046 32.9873 50.2215 31.6507C51.2496 29.5943 52.3806 27.2295 53.6144 24.5563C54.951 21.883 55.9792 19.2098 56.6989 16.5365C56.9046 15.8168 57.2644 15.1485 57.7785 14.5316C58.3954 13.8119 58.9095 13.452 59.3208 13.452C59.7321 13.452 60.1947 13.6577 60.7088 14.0689C61.2229 14.3774 61.6856 14.7886 62.0968 15.3027C62.4053 15.6112 62.868 15.9196 63.4849 16.2281C64.1018 16.5365 65.1814 16.7936 66.7236 16.9992C68.2659 17.102 70.6307 17.1534 73.818 17.1534H128.877C132.064 17.1534 134.429 17.0506 135.971 16.845C137.616 16.6394 138.799 16.3823 139.518 16.0739C140.238 15.7654 140.752 15.457 141.06 15.1485C141.575 14.6344 142.037 14.2232 142.449 13.9147C142.86 13.6063 143.271 13.452 143.682 13.452C144.71 13.452 145.225 14.0175 145.225 15.1485C145.225 15.8682 145.019 16.6394 144.608 17.4619C144.299 18.2844 143.991 18.9527 143.682 19.4668C143.168 20.495 142.346 22.7056 141.215 26.0985C140.084 29.3887 139.107 33.1415 138.284 37.357C138.182 38.1796 137.976 38.7451 137.668 39.0535C137.359 39.362 136.999 39.5162 136.588 39.5162C135.868 39.5162 135.303 39.2077 134.891 38.5908C134.583 37.8711 134.429 36.9972 134.429 35.969C134.429 31.2394 133.658 27.6408 132.115 25.1732C130.676 22.7056 128.003 21.4718 124.096 21.4718H108.673C107.336 21.4718 106.205 21.7802 105.28 22.3971C104.458 23.014 103.635 24.2992 102.812 26.2528C102.093 28.1035 101.167 30.9824 100.036 34.8894L81.3751 100.435C80.3469 104.137 80.5011 106.964 81.8378 108.918C83.2772 110.769 85.6934 112.054 89.0864 112.773C90.6286 113.082 91.6568 113.39 92.1709 113.699C92.685 114.007 92.942 114.521 92.942 115.241C92.942 115.858 92.4793 116.269 91.554 116.475C90.6286 116.783 89.5491 116.938 88.3152 116.938C85.7448 116.938 83.6371 116.835 81.992 116.629C80.3469 116.526 78.7532 116.423 77.211 116.321C75.7715 116.218 73.9722 116.166 71.8131 116.166C69.4483 116.166 67.3405 116.218 65.4898 116.321C63.6391 116.423 61.737 116.526 59.7835 116.629C57.9327 116.835 55.7222 116.938 53.1517 116.938Z" fill="#191919"/>
<path d="M185.655 117.587C182.236 117.587 178.75 117.331 175.195 116.82C171.64 116.411 168.085 115.695 164.531 114.673C162.753 114.161 161.249 113.752 160.019 113.446C158.925 113.037 158.173 112.832 157.763 112.832C157.079 112.832 156.327 112.934 155.507 113.139C154.823 113.343 154.139 113.548 153.456 113.752C152.635 114.161 151.883 114.519 151.2 114.826C150.516 115.133 149.901 115.286 149.354 115.286C148.807 115.286 148.055 114.979 147.098 114.366C146.004 113.65 145.457 112.986 145.457 112.372C145.457 111.759 146.073 110.378 147.303 108.231C148.534 106.084 149.901 103.375 151.405 100.103C153.046 96.7289 154.208 93.0482 154.891 89.0607C155.302 87.0159 156.395 85.9934 158.173 85.9934C159.267 85.9934 159.95 86.5046 160.224 87.5271C160.497 88.4473 160.634 89.9298 160.634 91.9746C160.634 95.8599 161.454 99.4384 163.095 102.71C164.872 105.88 167.538 108.385 171.093 110.225C174.785 112.065 179.434 112.986 185.039 112.986C193.79 112.986 201.173 111.145 207.189 107.464C213.342 103.681 216.418 98.3648 216.418 91.5145C216.418 88.8562 215.871 86.4024 214.777 84.1531C213.82 81.9037 212.111 79.6032 209.65 77.2516C207.189 74.7978 203.771 72.0373 199.396 68.97C193.516 64.9825 188.458 60.8416 184.219 56.5474C180.117 52.2532 178.066 47.1922 178.066 41.3644C178.066 35.9455 179.912 31.1401 183.604 26.9481C187.432 22.7561 192.559 19.4844 198.985 17.1328C205.548 14.6789 212.863 13.452 220.93 13.452C223.117 13.452 225.442 13.6565 227.903 14.0655C230.364 14.3722 232.757 14.7812 235.081 15.2924C237.816 15.9059 240.071 16.5193 241.849 17.1328C243.763 17.644 245.199 17.8996 246.156 17.8996C247.66 17.8996 248.959 17.644 250.052 17.1328C250.599 16.9283 251.146 16.7749 251.693 16.6727C252.24 16.4682 252.855 16.366 253.539 16.366C254.633 16.366 255.316 16.6727 255.59 17.2861C255.863 17.8996 256 18.4108 256 18.8198C256 18.922 255.521 19.5866 254.564 20.8135C253.744 21.9382 252.719 23.9319 251.488 26.7947C250.394 29.5553 249.3 33.5939 248.207 38.9105C247.933 40.4442 247.386 41.6711 246.566 42.5913C245.882 43.4092 245.335 43.8182 244.925 43.8182C243.968 43.8182 243.285 43.4603 242.874 42.7446C242.601 41.9267 242.464 40.9554 242.464 39.8307C242.464 32.6737 240.277 27.2548 235.901 23.5741C231.526 19.7911 225.715 17.8996 218.469 17.8996C213.683 17.8996 209.24 18.8709 205.138 20.8135C201.173 22.7561 198.028 25.2611 195.704 28.3284C193.38 31.2934 192.217 34.4118 192.217 37.6836C192.217 40.3419 192.833 42.9491 194.063 45.5052C195.294 47.959 197.276 50.5151 200.011 53.1734C202.882 55.7295 206.642 58.6434 211.291 61.9152C218.264 66.6184 223.459 70.9126 226.877 74.7978C230.432 78.6831 232.21 82.7728 232.21 87.067C232.21 92.6903 230.432 97.8025 226.877 102.403C223.323 107.004 218.059 110.685 211.086 113.446C204.249 116.206 195.772 117.587 185.655 117.587Z" fill="#191919"/>
<path d="M49.5067 242.025C48.5814 242.025 46.4222 241.923 43.0293 241.717C39.7391 241.511 35.9863 241.306 31.7708 241.1C27.5553 240.997 23.5454 240.946 19.7412 240.946C17.8904 240.946 16.194 240.997 14.6517 241.1C13.2123 241.203 11.67 241.306 10.0249 241.408C8.37985 241.614 6.2721 241.717 3.70166 241.717C2.46786 241.717 1.5425 241.563 0.925599 241.254C0.308696 241.049 0.000244141 240.637 0.000244141 240.02C0.000244141 238.375 1.85095 237.45 5.55237 237.244C8.84253 237.142 11.3101 236.679 12.9552 235.856C14.7031 234.931 16.0397 233.646 16.9651 232.001C17.8904 230.253 18.7644 228.145 19.5869 225.677L42.7208 154.579C43.5433 152.112 43.2349 150.312 41.7955 149.181C40.4588 147.948 38.6081 147.074 36.2433 146.56C33.8785 145.943 31.5651 145.429 29.3032 145.017C27.7609 144.709 26.7327 144.298 26.2186 143.783C25.8074 143.269 25.6017 142.653 25.6017 141.933C25.6017 141.316 26.0644 140.905 26.9898 140.699C27.9151 140.391 28.9947 140.236 30.2285 140.236C34.3412 140.236 38.094 140.339 41.487 140.545C44.88 140.75 48.1701 140.853 51.3575 140.853C53.4138 140.853 55.1617 140.802 56.6011 140.699C58.1434 140.493 59.6857 140.339 61.2279 140.236C62.873 140.031 64.8779 139.928 67.2427 139.928C76.9075 139.928 85.3385 141.573 92.5358 144.863C99.733 148.05 105.337 152.831 109.346 159.206C113.459 165.478 115.515 173.343 115.515 182.803C115.515 190.617 113.922 198.071 110.734 205.165C107.547 212.26 103.023 218.583 97.1625 224.135C91.3019 229.687 84.3104 234.057 76.1878 237.244C68.1681 240.432 59.2744 242.025 49.5067 242.025ZM50.2779 237.399C57.9892 237.399 64.9807 235.805 71.2526 232.618C77.6273 229.43 83.128 225.112 87.7548 219.663C92.3815 214.11 95.9287 207.941 98.3963 201.156C100.967 194.267 102.252 187.224 102.252 180.027C102.252 172.11 100.915 165.581 98.2421 160.44C95.5689 155.299 91.7132 151.443 86.6752 148.873C81.74 146.303 75.7765 145.017 68.785 145.017C64.4666 145.017 61.3821 145.326 59.5314 145.943C57.6807 146.457 56.4469 147.331 55.83 148.565C55.3159 149.695 54.7504 151.135 54.1335 152.883L33.1588 219.2C31.7194 223.724 31.5137 227.323 32.5419 229.996C33.5701 232.669 35.575 234.571 38.5567 235.702C41.6412 236.833 45.5483 237.399 50.2779 237.399Z" fill="#191919"/>
<path d="M173.422 242.548C169.449 242.548 165.331 241.679 161.067 239.941C156.803 238.1 152.83 235.493 149.148 232.119C145.466 228.643 142.462 224.502 140.136 219.697C137.907 214.891 136.793 209.523 136.793 203.593C136.793 194.391 138.343 185.854 141.444 177.981C144.642 170.109 149.003 163.207 154.526 157.277C160.049 151.347 166.348 146.746 173.422 143.474C180.593 140.1 188.103 138.413 195.952 138.413C198.665 138.413 201.33 138.669 203.946 139.18C206.659 139.589 209.372 140.305 212.086 141.327C213.927 141.941 215.526 142.503 216.882 143.014C218.239 143.526 219.402 143.781 220.371 143.781C220.855 143.781 221.34 143.679 221.824 143.474C222.309 143.168 222.842 142.861 223.423 142.554C224.005 142.35 224.586 142.145 225.168 141.941C225.749 141.634 226.282 141.481 226.766 141.481C227.639 141.481 228.075 141.787 228.075 142.401C228.171 143.014 228.075 143.526 227.784 143.935C226.718 145.468 225.507 147.513 224.15 150.069C222.793 152.625 221.534 155.284 220.371 158.044C219.305 160.805 218.53 163.361 218.045 165.712C217.948 166.428 217.609 167.144 217.028 167.859C216.446 168.473 215.913 168.78 215.429 168.78C214.557 168.78 213.927 168.371 213.539 167.553C213.249 166.633 213.152 165.712 213.249 164.792C213.733 162.441 213.878 160.089 213.685 157.737C213.588 155.284 212.716 152.932 211.068 150.683C209.421 148.433 207.241 146.644 204.527 145.315C201.911 143.883 198.907 143.168 195.516 143.168C191.349 143.168 187.085 144.19 182.724 146.235C178.364 148.28 174.197 151.194 170.224 154.977C166.348 158.658 162.811 163.054 159.613 168.166C156.513 173.278 154.042 178.953 152.2 185.19C150.456 191.324 149.584 197.868 149.584 204.82C149.584 211.057 150.408 216.271 152.055 220.463C153.799 224.655 156.028 228.029 158.741 230.586C161.551 233.142 164.555 234.982 167.753 236.107C171.048 237.231 174.246 237.794 177.346 237.794C182.288 237.794 186.31 236.976 189.411 235.34C192.512 233.602 195.128 231.352 197.26 228.592C199.392 225.729 201.427 222.559 203.365 219.083C203.849 218.265 204.334 217.601 204.818 217.089C205.303 216.476 205.932 216.169 206.708 216.169C207.192 216.169 207.483 216.425 207.58 216.936C207.677 217.447 207.725 218.214 207.725 219.237C207.725 219.952 207.289 221.537 206.417 223.991C205.545 226.342 204.479 228.898 203.219 231.659C201.959 234.42 200.748 236.822 199.585 238.867C198.519 240.81 197.744 241.781 197.26 241.781C196.872 241.781 196.436 241.577 195.952 241.168C195.467 240.861 194.983 240.503 194.498 240.094C194.11 239.685 193.626 239.378 193.045 239.174C192.56 238.867 192.027 238.714 191.446 238.714C190.767 238.714 189.944 238.867 188.975 239.174C188.006 239.481 186.843 239.89 185.486 240.401C184.033 240.912 182.288 241.372 180.253 241.781C178.219 242.292 175.941 242.548 173.422 242.548Z" fill="#191919"/>
</g>
<defs>
<clipPath id="clip0_10_36">
<rect width="256" height="256" fill="white"/>
</clipPath>
</defs>
</svg>
