<svg width="750" height="750" viewBox="0 0 750 750" fill="none" xmlns="http://www.w3.org/2000/svg">
<g clip-path="url(#clip0_14_134)">
<rect width="750" height="750" rx="128" fill="white"/>
<rect width="750" height="750" rx="128" fill="#191919"/>
<g filter="url(#filter0_f_14_134)">
<path d="M-106.5 64.63L86.1696 -26L-12.1407 355.538L458.652 48.5614L179.255 776L856.5 162.046L702.246 776" stroke="#007A55" stroke-opacity="0.5" stroke-width="50" stroke-linecap="round" stroke-linejoin="round"/>
</g>
<path d="M259.71 606C241.498 606 228.07 602.756 219.427 596.269C210.476 590.09 206 582.83 206 574.489C206 567.693 208.469 561.978 213.408 557.344C218.038 552.71 222.823 550.393 227.762 550.393C230.54 550.393 233.472 552.247 236.559 555.954C239.337 559.97 242.269 564.14 245.356 568.465C248.752 572.481 252.301 576.189 256.005 579.587C259.401 583.294 264.031 585.147 269.896 585.147C274.835 585.147 279.311 583.139 283.323 579.123C287.027 575.416 290.732 569.701 294.436 561.978C297.831 554.255 301.226 544.06 304.622 531.394L367.129 312.211C368.672 306.65 366.511 303.87 360.647 303.87L332.866 304.333C330.088 304.333 328.081 303.715 326.847 302.479C325.921 301.244 325.458 299.39 325.458 296.919C325.458 294.447 326.538 291.513 328.699 288.114C331.168 284.407 334.409 282.399 338.422 282.09L368.981 280.7C372.068 280.391 374.228 277.92 375.463 273.286L379.167 260.311C387.501 231.89 398.305 209.184 411.578 192.193C425.16 175.202 439.359 162.999 454.175 155.585C469.3 147.862 483.345 144 496.31 144C510.2 144 521.621 147.244 530.573 153.731C539.524 159.91 544 167.942 544 177.827C544 185.86 541.994 192.81 537.981 198.68C533.968 204.55 529.029 207.484 523.164 207.484C519.152 207.484 515.91 205.167 513.441 200.534C511.28 195.9 508.965 190.802 506.496 185.242C504.335 179.063 501.248 173.811 497.236 169.486C493.532 165.161 488.593 162.999 482.419 162.999C475.628 162.999 469.609 165.625 464.362 170.877C459.114 175.819 454.175 183.388 449.545 193.583C445.224 203.468 440.902 215.825 436.581 230.654C434.729 236.832 433.031 242.857 431.488 248.726C430.253 254.287 429.018 259.848 427.784 265.408C427.166 267.262 426.703 268.806 426.395 270.042C426.086 271.278 425.932 272.668 425.932 274.213C425.623 276.684 426.086 278.383 427.321 279.31C428.864 279.928 430.407 280.237 431.951 280.237C440.594 280.237 448.619 280.082 456.027 279.773C463.744 279.155 471.461 278.847 479.178 278.847C481.956 278.847 483.345 280.855 483.345 284.871C483.345 286.415 482.728 288.578 481.493 291.358C480.258 293.829 478.561 296.146 476.4 298.309C474.548 300.471 472.696 301.553 470.844 301.553L431.951 302.479C427.321 302.479 423.771 303.252 421.301 304.796C418.832 306.341 417.134 308.812 416.208 312.211C406.331 345.884 396.453 380.329 386.575 415.547C376.698 450.455 367.283 484.746 358.332 518.419C355.245 529.541 349.843 540.353 342.126 550.857C334.409 561.36 325.458 570.628 315.271 578.66C305.085 587.001 295.207 593.643 285.638 598.586C275.761 603.529 267.118 606 259.71 606Z" fill="white"/>
</g>
<defs>
<filter id="filter0_f_14_134" x="-297.406" y="-216.9" width="1344.81" height="1183.81" filterUnits="userSpaceOnUse" color-interpolation-filters="sRGB">
<feFlood flood-opacity="0" result="BackgroundImageFix"/>
<feBlend mode="normal" in="SourceGraphic" in2="BackgroundImageFix" result="shape"/>
<feGaussianBlur stdDeviation="82.95" result="effect1_foregroundBlur_14_134"/>
</filter>
<clipPath id="clip0_14_134">
<rect width="750" height="750" rx="128" fill="white"/>
</clipPath>
</defs>
</svg>
